<svg width="72" height="66" viewBox="0 0 72 66" fill="none" xmlns="http://www.w3.org/2000/svg">
<path d="M17 19.5C22.3656 19.5 26.7143 15.1354 26.7143 9.75C26.7143 4.36465 22.3656 0 17 0C11.6344 0 7.28571 4.36465 7.28571 9.75C7.28571 15.1354 11.6344 19.5 17 19.5ZM23.8 21.9375H22.5326C20.8478 22.7145 18.9732 23.1562 17 23.1562C15.0268 23.1562 13.1598 22.7145 11.4674 21.9375H10.2C4.56875 21.9375 0 26.523 0 32.175V35.3438C0 37.3623 1.6317 39 3.64286 39H30.3571C32.3683 39 34 37.3623 34 35.3438V32.175C34 26.523 29.4313 21.9375 23.8 21.9375Z" fill="#2D5527"/>
<path d="M55 19.5C60.3656 19.5 64.7143 15.1354 64.7143 9.75C64.7143 4.36465 60.3656 0 55 0C49.6344 0 45.2857 4.36465 45.2857 9.75C45.2857 15.1354 49.6344 19.5 55 19.5ZM61.8 21.9375H60.5326C58.8478 22.7145 56.9732 23.1562 55 23.1562C53.0268 23.1562 51.1598 22.7145 49.4674 21.9375H48.2C42.5687 21.9375 38 26.523 38 32.175V35.3438C38 37.3623 39.6317 39 41.6429 39H68.3571C70.3683 39 72 37.3623 72 35.3438V32.175C72 26.523 67.4313 21.9375 61.8 21.9375Z" fill="#2D5527"/>
<path d="M17.108 54.2898H14.983C14.9223 53.9413 14.8106 53.6326 14.6477 53.3636C14.4848 53.0909 14.2822 52.8598 14.0398 52.6705C13.7973 52.4811 13.5208 52.339 13.2102 52.2443C12.9034 52.1458 12.572 52.0966 12.2159 52.0966C11.5833 52.0966 11.0227 52.2557 10.5341 52.5739C10.0455 52.8883 9.66288 53.3504 9.38636 53.9602C9.10985 54.5663 8.97159 55.3068 8.97159 56.1818C8.97159 57.072 9.10985 57.822 9.38636 58.4318C9.66667 59.0379 10.0492 59.4962 10.5341 59.8068C11.0227 60.1136 11.5814 60.267 12.2102 60.267C12.5587 60.267 12.8845 60.2216 13.1875 60.1307C13.4943 60.036 13.7689 59.8977 14.0114 59.7159C14.2576 59.5341 14.464 59.3106 14.6307 59.0455C14.8011 58.7803 14.9186 58.4773 14.983 58.1364L17.108 58.1477C17.0284 58.7008 16.8561 59.2197 16.5909 59.7045C16.3295 60.1894 15.9867 60.6174 15.5625 60.9886C15.1383 61.3561 14.642 61.6439 14.0739 61.8523C13.5057 62.0568 12.875 62.1591 12.1818 62.1591C11.1591 62.1591 10.2462 61.9223 9.44318 61.4489C8.64015 60.9754 8.00758 60.2917 7.54545 59.3977C7.08333 58.5038 6.85227 57.4318 6.85227 56.1818C6.85227 54.928 7.08523 53.8561 7.55114 52.9659C8.01705 52.072 8.65152 51.3883 9.45455 50.9148C10.2576 50.4413 11.1667 50.2045 12.1818 50.2045C12.8295 50.2045 13.4318 50.2955 13.9886 50.4773C14.5455 50.6591 15.0417 50.9261 15.4773 51.2784C15.9129 51.6269 16.2708 52.0549 16.5511 52.5625C16.8352 53.0663 17.0208 53.642 17.108 54.2898ZM22.7543 62.1705C21.902 62.1705 21.1634 61.983 20.5384 61.608C19.9134 61.233 19.4285 60.7083 19.0838 60.0341C18.7429 59.3598 18.5724 58.572 18.5724 57.6705C18.5724 56.7689 18.7429 55.9792 19.0838 55.3011C19.4285 54.6231 19.9134 54.0966 20.5384 53.7216C21.1634 53.3466 21.902 53.1591 22.7543 53.1591C23.6065 53.1591 24.3452 53.3466 24.9702 53.7216C25.5952 54.0966 26.0781 54.6231 26.419 55.3011C26.7637 55.9792 26.9361 56.7689 26.9361 57.6705C26.9361 58.572 26.7637 59.3598 26.419 60.0341C26.0781 60.7083 25.5952 61.233 24.9702 61.608C24.3452 61.983 23.6065 62.1705 22.7543 62.1705ZM22.7656 60.5227C23.2277 60.5227 23.6141 60.3958 23.9247 60.142C24.2353 59.8845 24.4664 59.5398 24.6179 59.108C24.7732 58.6761 24.8509 58.1951 24.8509 57.6648C24.8509 57.1307 24.7732 56.6477 24.6179 56.2159C24.4664 55.7803 24.2353 55.4337 23.9247 55.1761C23.6141 54.9186 23.2277 54.7898 22.7656 54.7898C22.2921 54.7898 21.8982 54.9186 21.5838 55.1761C21.2732 55.4337 21.0402 55.7803 20.8849 56.2159C20.7334 56.6477 20.6577 57.1307 20.6577 57.6648C20.6577 58.1951 20.7334 58.6761 20.8849 59.108C21.0402 59.5398 21.2732 59.8845 21.5838 60.142C21.8982 60.3958 22.2921 60.5227 22.7656 60.5227ZM34.2443 58.3295V53.2727H36.3011V62H34.3068V60.4489H34.2159C34.0189 60.9375 33.6951 61.3371 33.2443 61.6477C32.7973 61.9583 32.2462 62.1136 31.5909 62.1136C31.0189 62.1136 30.5133 61.9867 30.0739 61.733C29.6383 61.4754 29.2973 61.1023 29.0511 60.6136C28.8049 60.1212 28.6818 59.5265 28.6818 58.8295V53.2727H30.7386V58.5114C30.7386 59.0644 30.8902 59.5038 31.1932 59.8295C31.4962 60.1553 31.8939 60.3182 32.3864 60.3182C32.6894 60.3182 32.983 60.2443 33.267 60.0966C33.5511 59.9489 33.7841 59.7292 33.9659 59.4375C34.1515 59.142 34.2443 58.7727 34.2443 58.3295ZM38.4162 65.2727V53.2727H40.4389V54.7159H40.5582C40.6643 54.5038 40.8139 54.2784 41.0071 54.0398C41.2003 53.7973 41.4616 53.5909 41.7912 53.4205C42.1207 53.2462 42.5412 53.1591 43.0526 53.1591C43.7268 53.1591 44.3348 53.3314 44.8764 53.6761C45.4219 54.017 45.8537 54.5227 46.1719 55.1932C46.4938 55.8598 46.6548 56.678 46.6548 57.6477C46.6548 58.6061 46.4976 59.4205 46.1832 60.0909C45.8688 60.7614 45.4408 61.2727 44.8991 61.625C44.3575 61.9773 43.7438 62.1534 43.0582 62.1534C42.5582 62.1534 42.1435 62.0701 41.8139 61.9034C41.4844 61.7367 41.2192 61.536 41.0185 61.3011C40.8215 61.0625 40.6681 60.8371 40.5582 60.625H40.473V65.2727H38.4162ZM40.4332 57.6364C40.4332 58.2008 40.5128 58.6951 40.6719 59.1193C40.8348 59.5436 41.0677 59.875 41.3707 60.1136C41.6776 60.3485 42.0488 60.4659 42.4844 60.4659C42.9389 60.4659 43.3196 60.3447 43.6264 60.1023C43.9332 59.8561 44.1643 59.5208 44.3196 59.0966C44.4787 58.6686 44.5582 58.1818 44.5582 57.6364C44.5582 57.0947 44.4806 56.6136 44.3253 56.1932C44.17 55.7727 43.9389 55.4432 43.6321 55.2045C43.3253 54.9659 42.9427 54.8466 42.4844 54.8466C42.045 54.8466 41.6719 54.9621 41.3651 55.1932C41.0582 55.4242 40.8253 55.7481 40.6662 56.1648C40.5109 56.5814 40.4332 57.072 40.4332 57.6364ZM50.473 50.3636V62H48.4162V50.3636H50.473ZM56.4517 62.1705C55.5767 62.1705 54.821 61.9886 54.1847 61.625C53.5521 61.2576 53.0653 60.7386 52.7244 60.0682C52.3835 59.3939 52.2131 58.6004 52.2131 57.6875C52.2131 56.7898 52.3835 56.0019 52.7244 55.3239C53.0691 54.642 53.5502 54.1117 54.1676 53.733C54.785 53.3504 55.5104 53.1591 56.3438 53.1591C56.8816 53.1591 57.3892 53.2462 57.8665 53.4205C58.3475 53.5909 58.7718 53.8561 59.1392 54.2159C59.5104 54.5758 59.8021 55.0341 60.0142 55.5909C60.2263 56.1439 60.3324 56.803 60.3324 57.5682V58.1989H53.179V56.8125H58.3608C58.357 56.4186 58.2718 56.0682 58.1051 55.7614C57.9384 55.4508 57.7055 55.2064 57.4062 55.0284C57.1108 54.8504 56.7661 54.7614 56.3722 54.7614C55.9517 54.7614 55.5824 54.8636 55.2642 55.0682C54.946 55.2689 54.6979 55.5341 54.5199 55.8636C54.3456 56.1894 54.2566 56.5473 54.2528 56.9375V58.1477C54.2528 58.6553 54.3456 59.0909 54.5312 59.4545C54.7169 59.8144 54.9763 60.0909 55.3097 60.2841C55.643 60.4735 56.0331 60.5682 56.4801 60.5682C56.7794 60.5682 57.0502 60.5265 57.2926 60.4432C57.535 60.3561 57.7453 60.2292 57.9233 60.0625C58.1013 59.8958 58.2358 59.6894 58.3267 59.4432L60.2472 59.6591C60.1259 60.1667 59.8949 60.6098 59.554 60.9886C59.2169 61.3636 58.785 61.6553 58.2585 61.8636C57.732 62.0682 57.1297 62.1705 56.4517 62.1705Z" fill="black"/>
</svg>
