<svg width="110" height="66" viewBox="0 0 110 66" fill="none" xmlns="http://www.w3.org/2000/svg">
<path d="M17 19.5C22.3656 19.5 26.7143 15.1354 26.7143 9.75C26.7143 4.36465 22.3656 0 17 0C11.6344 0 7.28571 4.36465 7.28571 9.75C7.28571 15.1354 11.6344 19.5 17 19.5ZM23.8 21.9375H22.5326C20.8478 22.7145 18.9732 23.1562 17 23.1562C15.0268 23.1562 13.1598 22.7145 11.4674 21.9375H10.2C4.56875 21.9375 0 26.523 0 32.175V35.3438C0 37.3623 1.6317 39 3.64286 39H30.3571C32.3683 39 34 37.3623 34 35.3438V32.175C34 26.523 29.4313 21.9375 23.8 21.9375Z" fill="#2D5527"/>
<path d="M93 19.5C98.3656 19.5 102.714 15.1354 102.714 9.75C102.714 4.36465 98.3656 0 93 0C87.6344 0 83.2857 4.36465 83.2857 9.75C83.2857 15.1354 87.6344 19.5 93 19.5ZM99.8 21.9375H98.5326C96.8478 22.7145 94.9732 23.1562 93 23.1562C91.0268 23.1562 89.1598 22.7145 87.4674 21.9375H86.2C80.5687 21.9375 76 26.523 76 32.175V35.3438C76 37.3623 77.6317 39 79.6429 39H106.357C108.368 39 110 37.3623 110 35.3438V32.175C110 26.523 105.431 21.9375 99.8 21.9375Z" fill="#2D5527"/>
<path d="M55 25.5C58.7875 25.5 61.8571 22.4783 61.8571 18.75C61.8571 15.0217 58.7875 12 55 12C51.2125 12 48.1429 15.0217 48.1429 18.75C48.1429 22.4783 51.2125 25.5 55 25.5ZM59.8 27.1875H58.9054C57.7161 27.7254 56.3929 28.0312 55 28.0312C53.6071 28.0312 52.2893 27.7254 51.0946 27.1875H50.2C46.225 27.1875 43 30.3621 43 34.275V36.4688C43 37.8662 44.1518 39 45.5714 39H64.4286C65.8482 39 67 37.8662 67 36.4688V34.275C67 30.3621 63.775 27.1875 59.8 27.1875Z" fill="#2D5527"/>
<path d="M28.1477 62V50.3636H35.6023V52.1307H30.2557V55.2898H35.0909V57.0568H30.2557V62H28.1477ZM39.8651 62.1761C39.312 62.1761 38.8139 62.0777 38.3707 61.8807C37.9313 61.6799 37.5829 61.3845 37.3253 60.9943C37.0715 60.6042 36.9446 60.1231 36.9446 59.5511C36.9446 59.0587 37.0355 58.6515 37.2173 58.3295C37.3991 58.0076 37.6473 57.75 37.9616 57.5568C38.276 57.3636 38.6302 57.2178 39.0241 57.1193C39.4219 57.017 39.8329 56.9432 40.2571 56.8977C40.7685 56.8447 41.1832 56.7973 41.5014 56.7557C41.8196 56.7102 42.0507 56.642 42.1946 56.5511C42.3423 56.4564 42.4162 56.3106 42.4162 56.1136V56.0795C42.4162 55.6515 42.2893 55.3201 42.0355 55.0852C41.7817 54.8504 41.4162 54.733 40.9389 54.733C40.4351 54.733 40.0355 54.8428 39.7401 55.0625C39.4484 55.2822 39.2514 55.5417 39.1491 55.8409L37.2287 55.5682C37.3802 55.0379 37.6302 54.5947 37.9787 54.2386C38.3272 53.8788 38.7533 53.6098 39.2571 53.4318C39.7609 53.25 40.3177 53.1591 40.9276 53.1591C41.348 53.1591 41.7666 53.2083 42.1832 53.3068C42.5999 53.4053 42.9806 53.5682 43.3253 53.7955C43.67 54.0189 43.9465 54.3239 44.1548 54.7102C44.367 55.0966 44.473 55.5795 44.473 56.1591V62H42.4957V60.8011H42.4276C42.3026 61.0436 42.1264 61.2708 41.8991 61.483C41.6757 61.6913 41.3935 61.8598 41.0526 61.9886C40.7154 62.1136 40.3196 62.1761 39.8651 62.1761ZM40.3991 60.6648C40.812 60.6648 41.17 60.5833 41.473 60.4205C41.776 60.2538 42.009 60.0341 42.1719 59.7614C42.3385 59.4886 42.4219 59.1913 42.4219 58.8693V57.8409C42.3575 57.8939 42.2476 57.9432 42.0923 57.9886C41.9408 58.0341 41.7704 58.0739 41.581 58.108C41.3916 58.142 41.2041 58.1723 41.0185 58.1989C40.8329 58.2254 40.6719 58.2481 40.5355 58.267C40.2287 58.3087 39.9541 58.3769 39.7116 58.4716C39.4692 58.5663 39.2779 58.6989 39.1378 58.8693C38.9976 59.036 38.9276 59.2519 38.9276 59.517C38.9276 59.8958 39.0658 60.1818 39.3423 60.375C39.6188 60.5682 39.9711 60.6648 40.3991 60.6648ZM46.5412 62V53.2727H48.5071V54.7557H48.6094C48.7912 54.2557 49.0923 53.8655 49.5128 53.5852C49.9332 53.3011 50.4351 53.1591 51.0185 53.1591C51.6094 53.1591 52.1075 53.303 52.5128 53.5909C52.9219 53.875 53.2098 54.2633 53.3764 54.7557H53.4673C53.6605 54.2708 53.9863 53.8845 54.4446 53.5966C54.9067 53.3049 55.4541 53.1591 56.0866 53.1591C56.8897 53.1591 57.545 53.4129 58.0526 53.9205C58.5601 54.428 58.8139 55.1686 58.8139 56.142V62H56.7514V56.4602C56.7514 55.9186 56.6075 55.5227 56.3196 55.2727C56.0317 55.0189 55.6795 54.892 55.2628 54.892C54.7666 54.892 54.3783 55.0473 54.098 55.358C53.8215 55.6648 53.6832 56.0644 53.6832 56.5568V62H51.6662V56.375C51.6662 55.9242 51.5298 55.5644 51.2571 55.2955C50.9882 55.0265 50.6359 54.892 50.2003 54.892C49.9048 54.892 49.6359 54.9678 49.3935 55.1193C49.151 55.267 48.9579 55.4773 48.8139 55.75C48.67 56.0189 48.598 56.3333 48.598 56.6932V62H46.5412ZM60.9006 62V53.2727H62.9574V62H60.9006ZM61.9347 52.0341C61.6089 52.0341 61.3286 51.9261 61.0938 51.7102C60.8589 51.4905 60.7415 51.2273 60.7415 50.9205C60.7415 50.6098 60.8589 50.3466 61.0938 50.1307C61.3286 49.911 61.6089 49.8011 61.9347 49.8011C62.2642 49.8011 62.5445 49.911 62.7756 50.1307C63.0104 50.3466 63.1278 50.6098 63.1278 50.9205C63.1278 51.2273 63.0104 51.4905 62.7756 51.7102C62.5445 51.9261 62.2642 52.0341 61.9347 52.0341ZM67.1293 50.3636V62H65.0724V50.3636H67.1293ZM70.5227 65.2727C70.2424 65.2727 69.983 65.25 69.7443 65.2045C69.5095 65.1629 69.322 65.1136 69.1818 65.0568L69.6591 63.4545C69.9583 63.5417 70.2254 63.5833 70.4602 63.5795C70.6951 63.5758 70.9015 63.5019 71.0795 63.358C71.2614 63.2178 71.4148 62.983 71.5398 62.6534L71.7159 62.1818L68.5511 53.2727H70.733L72.7443 59.8636H72.8352L74.8523 53.2727H77.0398L73.5455 63.0568C73.3826 63.5189 73.1667 63.9148 72.8977 64.2443C72.6288 64.5777 72.2992 64.8314 71.9091 65.0057C71.5227 65.1837 71.0606 65.2727 70.5227 65.2727Z" fill="black"/>
</svg>
