<svg width="115" height="50" viewBox="0 0 115 50" fill="none" xmlns="http://www.w3.org/2000/svg">
<path d="M6.588 18.12V27.12H9.792C11.112 26.04 11.772 24.456 11.772 22.368C11.772 21.48 11.592 20.64 11.232 19.848C10.896 19.056 10.488 18.48 10.008 18.12H6.588ZM1.728 39V13.8H11.484C13.116 14.52 14.4 15.624 15.336 17.112C16.296 18.6 16.776 20.34 16.776 22.332C16.776 24.3 16.284 26.124 15.3 27.804C14.316 29.484 12.864 30.672 10.944 31.368H6.588V39H1.728ZM29.4725 39H21.6245C19.2245 36.768 18.0245 33.72 18.0245 29.856C18.0245 27.912 18.2885 26.22 18.8165 24.78C19.3685 23.34 20.2325 21.948 21.4085 20.604H29.8325C31.0805 22.044 31.9325 23.448 32.3885 24.816C32.8445 26.16 33.0725 27.84 33.0725 29.856C33.0725 33.72 31.8725 36.768 29.4725 39ZM24.1805 35.22H26.9165C27.7805 33.54 28.2125 31.632 28.2125 29.496C28.2125 27.36 27.7685 25.656 26.8805 24.384H24.1805C23.3165 25.608 22.8845 27.348 22.8845 29.604C22.8845 31.836 23.3165 33.708 24.1805 35.22ZM36.378 30.972V24.384H33.894V20.604H36.378V15.6H41.166V20.604H44.118V24.384H41.166V32.124C41.166 33.588 41.418 34.62 41.922 35.22H44.118V39H39.006C37.734 37.824 36.966 36.552 36.702 35.184C36.486 34.032 36.378 32.628 36.378 30.972ZM54.9008 20.604H58.3208C59.3768 21.948 60.0968 23.292 60.4808 24.636C60.8648 25.98 61.0568 27.66 61.0568 29.676V39H56.2688V29.316C56.2688 27.036 55.9568 25.392 55.3328 24.384H51.3008V39H46.5128V13.8H51.3008V21.9C51.8288 21.42 52.3208 21.084 52.7768 20.892C53.2568 20.7 53.9648 20.604 54.9008 20.604ZM64.0207 39V20.604H68.7727V39H64.0207ZM64.0207 13.8H68.7727V18.66H64.0207V13.8ZM71.8605 39V13.8H76.6485V27.156H77.1525L80.5365 20.604H85.2165L80.9685 28.632L85.2525 39H80.5005L77.1885 30.936H76.6485V39H71.8605Z" fill="#D7FFC9"/>
<path d="M113.828 20.25H113.438V17.9062C113.438 15.7188 108.594 14 102.5 14C96.4062 14 91.5625 15.7188 91.5625 17.9062V20.25H91.1719C90.5249 20.25 90 20.7744 90 21.4219V25.3281C90 25.9751 90.5249 26.5 91.1719 26.5H91.5625V34.3125C91.5625 35.1753 92.2622 35.875 93.125 35.875V37.4375C93.125 38.3003 93.8247 39 94.6875 39H96.25C97.1128 39 97.8125 38.3003 97.8125 37.4375V35.875H107.188V37.4375C107.188 38.3003 107.887 39 108.75 39H110.312C111.175 39 111.875 38.3003 111.875 37.4375V35.875H112.188C112.969 35.875 113.438 35.25 113.438 34.625V26.5H113.828C114.475 26.5 115 25.9751 115 25.3281V21.4219C115 20.7744 114.475 20.25 113.828 20.25ZM95.4688 33.5312C94.606 33.5312 93.9062 32.8315 93.9062 31.9688C93.9062 31.106 94.606 30.4062 95.4688 30.4062C96.3315 30.4062 97.0312 31.106 97.0312 31.9688C97.0312 32.8315 96.3315 33.5312 95.4688 33.5312ZM96.25 28.0625C95.3872 28.0625 94.6875 27.3628 94.6875 26.5V20.25C94.6875 19.3872 95.3872 18.6875 96.25 18.6875H108.75C109.613 18.6875 110.312 19.3872 110.312 20.25V26.5C110.312 27.3628 109.613 28.0625 108.75 28.0625H96.25ZM109.531 33.5312C108.668 33.5312 107.969 32.8315 107.969 31.9688C107.969 31.106 108.668 30.4062 109.531 30.4062C110.394 30.4062 111.094 31.106 111.094 31.9688C111.094 32.8315 110.394 33.5312 109.531 33.5312Z" fill="#2D5527"/>
</svg>
