<svg width="20" height="20" viewBox="0 0 20 20" fill="none" xmlns="http://www.w3.org/2000/svg">
<path d="M19.728 17.2876L15.8332 13.5881C15.6574 13.4211 15.4191 13.3284 15.1691 13.3284H14.5323C15.6105 12.0185 16.2512 10.371 16.2512 8.57884C16.2512 4.31539 12.6142 0.86084 8.12559 0.86084C3.63698 0.86084 0 4.31539 0 8.57884C0 12.8423 3.63698 16.2968 8.12559 16.2968C10.0125 16.2968 11.747 15.6883 13.126 14.6642V15.269C13.126 15.5065 13.2236 15.7328 13.3994 15.8998L17.2942 19.5992C17.6614 19.948 18.2552 19.948 18.6185 19.5992L19.7241 18.5492C20.0913 18.2004 20.0913 17.6364 19.728 17.2876ZM8.12559 13.3284C5.36367 13.3284 3.12523 11.2059 3.12523 8.57884C3.12523 5.95546 5.35977 3.8293 8.12559 3.8293C10.8875 3.8293 13.126 5.95175 13.126 8.57884C13.126 11.2022 10.8914 13.3284 8.12559 13.3284Z" fill="white"/>
</svg>
