<svg width="48" height="66" viewBox="0 0 48 66" fill="none" xmlns="http://www.w3.org/2000/svg">
<path d="M24 19.5C29.3656 19.5 33.7143 15.1354 33.7143 9.75C33.7143 4.36465 29.3656 0 24 0C18.6344 0 14.2857 4.36465 14.2857 9.75C14.2857 15.1354 18.6344 19.5 24 19.5ZM30.8 21.9375H29.5326C27.8478 22.7145 25.9732 23.1562 24 23.1562C22.0268 23.1562 20.1598 22.7145 18.4674 21.9375H17.2C11.5687 21.9375 7 26.523 7 32.175V35.3438C7 37.3623 8.6317 39 10.6429 39H37.3571C39.3683 39 41 37.3623 41 35.3438V32.175C41 26.523 36.4313 21.9375 30.8 21.9375Z" fill="#2D5527"/>
<path d="M7.47159 53.5625C7.41856 53.0663 7.19508 52.6799 6.80114 52.4034C6.41099 52.1269 5.90341 51.9886 5.27841 51.9886C4.83902 51.9886 4.46212 52.0549 4.14773 52.1875C3.83333 52.3201 3.5928 52.5 3.42614 52.7273C3.25947 52.9545 3.17424 53.214 3.17045 53.5057C3.17045 53.7481 3.22538 53.9583 3.33523 54.1364C3.44886 54.3144 3.60227 54.4659 3.79545 54.5909C3.98864 54.7121 4.20265 54.8144 4.4375 54.8977C4.67235 54.9811 4.90909 55.0511 5.14773 55.108L6.23864 55.3807C6.67803 55.483 7.10038 55.6212 7.50568 55.7955C7.91477 55.9697 8.2803 56.1894 8.60227 56.4545C8.92803 56.7197 9.18561 57.0398 9.375 57.4148C9.56439 57.7898 9.65909 58.2292 9.65909 58.733C9.65909 59.4148 9.48485 60.0152 9.13636 60.5341C8.78788 61.0492 8.28409 61.4527 7.625 61.7443C6.9697 62.0322 6.17614 62.1761 5.24432 62.1761C4.33902 62.1761 3.55303 62.036 2.88636 61.7557C2.22348 61.4754 1.70455 61.0663 1.32955 60.5284C0.958333 59.9905 0.757576 59.3352 0.727273 58.5625H2.80114C2.83144 58.9678 2.95644 59.3049 3.17614 59.5739C3.39583 59.8428 3.68182 60.0436 4.03409 60.1761C4.39015 60.3087 4.78788 60.375 5.22727 60.375C5.68561 60.375 6.08712 60.3068 6.43182 60.1705C6.7803 60.0303 7.05303 59.8371 7.25 59.5909C7.44697 59.3409 7.54735 59.0492 7.55114 58.7159C7.54735 58.4129 7.45833 58.1629 7.28409 57.9659C7.10985 57.7652 6.86553 57.5985 6.55114 57.4659C6.24053 57.3295 5.87689 57.2083 5.46023 57.1023L4.13636 56.7614C3.17803 56.5152 2.42045 56.142 1.86364 55.642C1.31061 55.1383 1.03409 54.4697 1.03409 53.6364C1.03409 52.9508 1.2197 52.3504 1.59091 51.8352C1.96591 51.3201 2.47538 50.9205 3.11932 50.6364C3.76326 50.3485 4.49242 50.2045 5.30682 50.2045C6.13258 50.2045 6.85606 50.3485 7.47727 50.6364C8.10227 50.9205 8.5928 51.3163 8.94886 51.8239C9.30492 52.3277 9.48864 52.9072 9.5 53.5625H7.47159ZM11.4474 62V53.2727H13.5043V62H11.4474ZM12.4815 52.0341C12.1558 52.0341 11.8755 51.9261 11.6406 51.7102C11.4058 51.4905 11.2884 51.2273 11.2884 50.9205C11.2884 50.6098 11.4058 50.3466 11.6406 50.1307C11.8755 49.911 12.1558 49.8011 12.4815 49.8011C12.8111 49.8011 13.0914 49.911 13.3224 50.1307C13.5573 50.3466 13.6747 50.6098 13.6747 50.9205C13.6747 51.2273 13.5573 51.4905 13.3224 51.7102C13.0914 51.9261 12.8111 52.0341 12.4815 52.0341ZM17.6761 56.8864V62H15.6193V53.2727H17.5852V54.7557H17.6875C17.8883 54.267 18.2083 53.8788 18.6477 53.5909C19.0909 53.303 19.6383 53.1591 20.2898 53.1591C20.892 53.1591 21.4167 53.2879 21.8636 53.5455C22.3144 53.803 22.6629 54.1761 22.9091 54.6648C23.1591 55.1534 23.2822 55.7462 23.2784 56.4432V62H21.2216V56.7614C21.2216 56.178 21.0701 55.7216 20.767 55.392C20.4678 55.0625 20.053 54.8977 19.5227 54.8977C19.1629 54.8977 18.8428 54.9773 18.5625 55.1364C18.286 55.2917 18.0682 55.517 17.9091 55.8125C17.7538 56.108 17.6761 56.4659 17.6761 56.8864ZM29.1648 65.4545C28.4261 65.4545 27.7917 65.3542 27.2614 65.1534C26.7311 64.9564 26.3049 64.6913 25.983 64.358C25.661 64.0246 25.4375 63.6553 25.3125 63.25L27.1648 62.8011C27.2481 62.9716 27.3693 63.1402 27.5284 63.3068C27.6875 63.4773 27.9015 63.6174 28.1705 63.7273C28.4432 63.8409 28.786 63.8977 29.1989 63.8977C29.7822 63.8977 30.2652 63.7557 30.6477 63.4716C31.0303 63.1913 31.2216 62.7292 31.2216 62.0852V60.4318H31.1193C31.0133 60.6439 30.858 60.8617 30.6534 61.0852C30.4527 61.3087 30.1856 61.4962 29.8523 61.6477C29.5227 61.7992 29.108 61.875 28.608 61.875C27.9375 61.875 27.3295 61.7178 26.7841 61.4034C26.2424 61.0852 25.8106 60.6117 25.4886 59.983C25.1705 59.3504 25.0114 58.5587 25.0114 57.608C25.0114 56.6496 25.1705 55.8409 25.4886 55.1818C25.8106 54.5189 26.2443 54.017 26.7898 53.6761C27.3352 53.3314 27.9432 53.1591 28.6136 53.1591C29.125 53.1591 29.5455 53.2462 29.875 53.4205C30.2083 53.5909 30.4735 53.7973 30.6705 54.0398C30.8674 54.2784 31.017 54.5038 31.1193 54.7159H31.233V53.2727H33.2614V62.142C33.2614 62.8883 33.0833 63.5057 32.7273 63.9943C32.3712 64.483 31.8845 64.8485 31.267 65.0909C30.6496 65.3333 29.9489 65.4545 29.1648 65.4545ZM29.1818 60.2614C29.6174 60.2614 29.9886 60.1553 30.2955 59.9432C30.6023 59.7311 30.8352 59.4261 30.9943 59.0284C31.1534 58.6307 31.233 58.1534 31.233 57.5966C31.233 57.0473 31.1534 56.5663 30.9943 56.1534C30.839 55.7405 30.608 55.4205 30.3011 55.1932C29.9981 54.9621 29.625 54.8466 29.1818 54.8466C28.7235 54.8466 28.3409 54.9659 28.0341 55.2045C27.7273 55.4432 27.4962 55.7708 27.3409 56.1875C27.1856 56.6004 27.108 57.0701 27.108 57.5966C27.108 58.1307 27.1856 58.5985 27.3409 59C27.5 59.3977 27.733 59.7083 28.0398 59.9318C28.3504 60.1515 28.7311 60.2614 29.1818 60.2614ZM37.4261 50.3636V62H35.3693V50.3636H37.4261ZM43.4048 62.1705C42.5298 62.1705 41.7741 61.9886 41.1378 61.625C40.5052 61.2576 40.0185 60.7386 39.6776 60.0682C39.3366 59.3939 39.1662 58.6004 39.1662 57.6875C39.1662 56.7898 39.3366 56.0019 39.6776 55.3239C40.0223 54.642 40.5033 54.1117 41.1207 53.733C41.7382 53.3504 42.4635 53.1591 43.2969 53.1591C43.8348 53.1591 44.3423 53.2462 44.8196 53.4205C45.3007 53.5909 45.7249 53.8561 46.0923 54.2159C46.4635 54.5758 46.7552 55.0341 46.9673 55.5909C47.1795 56.1439 47.2855 56.803 47.2855 57.5682V58.1989H40.1321V56.8125H45.3139C45.3101 56.4186 45.2249 56.0682 45.0582 55.7614C44.8916 55.4508 44.6586 55.2064 44.3594 55.0284C44.0639 54.8504 43.7192 54.7614 43.3253 54.7614C42.9048 54.7614 42.5355 54.8636 42.2173 55.0682C41.8991 55.2689 41.651 55.5341 41.473 55.8636C41.2988 56.1894 41.2098 56.5473 41.206 56.9375V58.1477C41.206 58.6553 41.2988 59.0909 41.4844 59.4545C41.67 59.8144 41.9295 60.0909 42.2628 60.2841C42.5961 60.4735 42.9863 60.5682 43.4332 60.5682C43.7325 60.5682 44.0033 60.5265 44.2457 60.4432C44.4882 60.3561 44.6984 60.2292 44.8764 60.0625C45.0545 59.8958 45.1889 59.6894 45.2798 59.4432L47.2003 59.6591C47.0791 60.1667 46.848 60.6098 46.5071 60.9886C46.17 61.3636 45.7382 61.6553 45.2116 61.8636C44.6851 62.0682 44.0829 62.1705 43.4048 62.1705Z" fill="black"/>
</svg>
